<?xml version="1.0" encoding="UTF-8" standalone="no"?>
<!-- Created with Inkscape (http://www.inkscape.org/) -->

<svg
   xmlns:osb="http://www.openswatchbook.org/uri/2009/osb"
   xmlns:dc="http://purl.org/dc/elements/1.1/"
   xmlns:cc="http://creativecommons.org/ns#"
   xmlns:rdf="http://www.w3.org/1999/02/22-rdf-syntax-ns#"
   xmlns:svg="http://www.w3.org/2000/svg"
   xmlns="http://www.w3.org/2000/svg"
   xmlns:sodipodi="http://sodipodi.sourceforge.net/DTD/sodipodi-0.dtd"
   xmlns:inkscape="http://www.inkscape.org/namespaces/inkscape"
   version="1.1"
   id="svg2"
   xml:space="preserve"
   width="294.35141"
   height="294.35141"
   viewBox="0 0 294.35141 294.35141"
   sodipodi:docname="latex_bfh_logo_2.svg"
   inkscape:version="0.92.5 (2060ec1f9f, 2020-04-08)"
   inkscape:export-filename="/home/simon/data/BFH_Bachelor/1_Organisation/09_gitLogo/latex_bfh_logo_2.png"
   inkscape:export-xdpi="326.14078"
   inkscape:export-ydpi="326.14078"><metadata
     id="metadata8"><rdf:RDF><cc:Work
         rdf:about=""><dc:format>image/svg+xml</dc:format><dc:type
           rdf:resource="http://purl.org/dc/dcmitype/StillImage" /><dc:title></dc:title></cc:Work></rdf:RDF></metadata><defs
     id="defs6"><clipPath
       clipPathUnits="userSpaceOnUse"
       id="clipPath1522"><rect
         style="opacity:0.83999999;fill:#ffffff;fill-opacity:0.7238806;stroke:#9c0000;stroke-width:3.17743707;stroke-linecap:butt;stroke-linejoin:miter;stroke-miterlimit:4;stroke-dasharray:none;stroke-dashoffset:37.79527664;stroke-opacity:1"
         id="rect1524"
         width="53.981724"
         height="21.555092"
         x="-5.3818259"
         y="-46.599522"
         ry="0" /></clipPath><linearGradient
       osb:paint="solid"
       id="linearGradient848"><stop
         id="stop846"
         offset="0"
         style="stop-color:#737373;stop-opacity:1;" /></linearGradient><linearGradient
       osb:paint="solid"
       id="linearGradient842"><stop
         id="stop840"
         offset="0"
         style="stop-color:#e37900;stop-opacity:1;" /></linearGradient></defs><sodipodi:namedview
     pagecolor="#ffffff"
     bordercolor="#666666"
     borderopacity="1"
     objecttolerance="10"
     gridtolerance="10"
     guidetolerance="10"
     inkscape:pageopacity="0"
     inkscape:pageshadow="2"
     inkscape:window-width="1880"
     inkscape:window-height="1145"
     id="namedview4"
     showgrid="false"
     inkscape:zoom="2.28978"
     inkscape:cx="223.42035"
     inkscape:cy="104.11532"
     inkscape:window-x="40"
     inkscape:window-y="27"
     inkscape:window-maximized="1"
     inkscape:current-layer="g1848"
     fit-margin-top="0"
     fit-margin-left="0"
     fit-margin-right="0"
     fit-margin-bottom="0" /><g
     id="g10"
     inkscape:groupmode="layer"
     inkscape:label="ink_ext_XXXXXX"
     transform="matrix(1.3333333,0,0,-1.3333333,-2.1836161,327.35606)"><text
   xml:space="preserve"
   style="font-style:normal;font-variant:normal;font-weight:normal;font-stretch:normal;font-size:9px;line-height:462px;font-family:'TeX Gyre Termes';-inkscape-font-specification:'TeX Gyre Termes, Normal';font-variant-ligatures:normal;font-variant-caps:normal;font-variant-numeric:normal;font-feature-settings:normal;text-align:start;letter-spacing:0px;word-spacing:0px;writing-mode:lr-tb;text-anchor:start;fill:#000000;fill-opacity:1;stroke:none;stroke-width:0.75"
   x="8.3378677"
   y="-63.51149"
   id="text822"
   transform="scale(1,-1)"><tspan
     sodipodi:role="line"
     id="tspan820"
     x="8.3378677"
     y="170.03551"
     style="font-style:normal;font-variant:normal;font-weight:normal;font-stretch:normal;font-size:9px;font-family:'TeX Gyre Termes';-inkscape-font-specification:'TeX Gyre Termes, Normal';font-variant-ligatures:normal;font-variant-caps:normal;font-variant-numeric:normal;font-feature-settings:normal;text-align:start;writing-mode:lr-tb;text-anchor:start;stroke-width:0.75" /></text>





<g
   id="g1848"
   transform="matrix(1.4986797,0,0,1.4986797,-11.005061,-18.530027)"><rect
   style="opacity:1;fill:#f4f4f4;fill-opacity:0.99159666;stroke:none;stroke-width:0;stroke-linecap:butt;stroke-linejoin:miter;stroke-miterlimit:4;stroke-dasharray:none;stroke-dashoffset:37.79527664;stroke-opacity:0.97058835"
   id="rect1885"
   width="147.30537"
   height="147.30537"
   x="8.8730516"
   y="-176.18646"
   transform="scale(1,-1)"
   rx="2.0017619"
   ry="2.0017619" /><g
   transform="matrix(0.79523014,0,0,0.79523014,22.168277,103.29209)"
   id="g818"
   style="stroke-width:2.24058795;stroke-miterlimit:4;stroke-dasharray:none"><path
     inkscape:connector-curvature="0"
     id="path14"
     style="fill:#41748c;fill-opacity:1;fill-rule:nonzero;stroke:none;stroke-width:2.24058795;stroke-miterlimit:4;stroke-dasharray:none"
     d="m 18.5602,77.302 c 7.755,0 14.0449,-6.2868 14.0449,-14.045 0,-5.2101 -2.4153,-9.7316 -6.3223,-12.1828 -0.0765,-0.0484 -0.132,-0.1211 -0.132,-0.2156 0,-0.1719 0.1359,-0.2156 0.1453,-0.2195 5.0684,-1.9618 8.2488,-7.1375 8.2488,-13.1485 0,-7.7597 -6.2914,-14.0472 -14.0472,-14.0472 L 1.94961,23.4473 C 0.873047,23.4473 0,24.3207 0,25.3949 v 49.9578 c 0,1.077 0.873047,1.9493 1.94961,1.9493 H 18.5602" /><path
     inkscape:connector-curvature="0"
     id="path16"
     style="fill:#fbc707;fill-opacity:1;fill-rule:nonzero;stroke:none;stroke-width:2.24058795;stroke-miterlimit:4;stroke-dasharray:none"
     d="m 11.7691,32.982 c -0.2476,0 -0.4593,0.2118 -0.4593,0.4594 v 11.2621 c 0,0.2477 0.2117,0.4598 0.4593,0.4598 h 0.709 c 0.2469,0 0.459,-0.2121 0.459,-0.4598 v -4.989 h 4.3848 v 4.989 c 0,0.2477 0.2117,0.4598 0.4594,0.4598 h 0.7066 c 0.2476,0 0.4594,-0.2121 0.4594,-0.4598 V 33.4414 c 0,-0.2476 -0.2118,-0.4594 -0.4594,-0.4594 h -0.7066 c -0.2477,0 -0.4594,0.2118 -0.4594,0.4594 v 4.8418 h -4.3848 v -4.8418 c 0,-0.2476 -0.2121,-0.4594 -0.459,-0.4594 h -0.709" /><path
     inkscape:connector-curvature="0"
     id="path18"
     style="fill:#fbc707;fill-opacity:1;fill-rule:nonzero;stroke:none;stroke-width:2.24058795;stroke-miterlimit:4;stroke-dasharray:none"
     d="m 11.7234,55.6266 c -0.2468,0 -0.4613,0.2136 -0.4613,0.4613 V 67.352 c 0,0.2476 0.2145,0.4597 0.4613,0.4597 h 6.7743 c 0.2472,0 0.4593,-0.2121 0.4593,-0.4597 v -0.477 c 0,-0.2469 -0.2121,-0.4594 -0.4593,-0.4594 h -5.6075 v -3.9152 h 4.777 c 0.2473,0 0.4594,-0.2137 0.4594,-0.4613 v -0.477 c 0,-0.2476 -0.2121,-0.4594 -0.4594,-0.4594 h -4.777 v -5.0148 c 0,-0.2477 -0.2121,-0.4613 -0.4593,-0.4613 h -0.7075" /></g><rect
   style="opacity:1;fill:#f4f4f4;fill-opacity:0.99159666;stroke:none;stroke-width:0.03782857;stroke-linecap:butt;stroke-linejoin:miter;stroke-miterlimit:4;stroke-dasharray:none;stroke-dashoffset:37.79527664;stroke-opacity:0.97058835"
   id="rect1887"
   width="0.65566194"
   height="3.2783096"
   x="107.878"
   y="-122.20362"
   transform="scale(1,-1)"
   ry="0.32783097" />
<g
   id="g1048"
   style="stroke:#face2c;stroke-width:0.8007048;stroke-miterlimit:4;stroke-dasharray:none;stroke-opacity:1"><path
     inkscape:connector-curvature="0"
     id="path1190"
     d="m 90.920805,38.790242 c -5.482308,0.204959 -8.641071,0.408588 -11.741687,0.756924 -3.387966,0.380616 -7.91528,0.983994 -11.083892,1.477212 -2.130808,0.331673 -4.797164,0.693264 -6.08463,0.825143 -0.560771,0.05744 -1.374795,0.161219 -1.808941,0.230614 -2.735553,0.437259 -13.006178,1.417508 -17.20141,1.64174 -2.645901,0.141421 -5.005499,0.195884 -8.485591,0.195846 -3.147047,-3e-5 -4.655399,-0.03318 -7.104214,-0.156086 l -0.624909,-0.03136 0.723577,0.08783 c 2.72989,0.33136 9.657548,0.331913 16.313383,0.0013 5.781316,-0.287168 11.957711,-0.828628 17.245866,-1.511872 5.702931,-0.736837 8.244991,-1.075402 9.634825,-1.283197 3.463441,-0.517828 9.335285,-1.20123 12.389831,-1.442013 2.71156,-0.213744 3.86042,-0.234597 12.925727,-0.234597 12.43701,0 13.08212,0.03587 20.8193,1.157989 4.09834,0.594376 8.29226,1.953741 9.14151,2.963019 0.23555,0.279934 0.26872,0.479589 0.13054,0.785975 -0.39174,0.868729 -2.19103,1.638358 -5.65417,2.418496 -4.81929,1.085638 -10.7009,1.798959 -16.93829,2.05427 -4.321046,0.176871 -12.084819,-0.08111 -15.063563,-0.500541 -0.379879,-0.05349 -1.282708,-0.171431 -2.006283,-0.262092 -3.000373,-0.375935 -5.943796,-1.108354 -7.398721,-1.841042 -0.456835,-0.230056 -0.885306,-0.602441 -0.958487,-0.833012 -0.05543,-0.174635 0.155816,-0.508333 0.476742,-0.753111 0.646722,-0.493274 2.383601,-0.995259 5.21561,-1.507396 0.886806,-0.160366 1.760383,-0.318617 1.941276,-0.351659 0.180893,-0.03306 0.254898,-0.06321 0.164449,-0.06703 -0.25091,-0.01061 -3.241501,0.491701 -4.295698,0.721502 -1.977723,0.43112 -3.265402,0.973287 -3.628784,1.527877 -0.204129,0.311536 0.136594,0.890435 0.761981,1.294644 1.255139,0.811234 4.190305,1.534401 8.929743,2.200114 3.822977,0.536978 4.934078,0.581203 13.658115,0.543633 7.00472,-0.03016 7.21005,-0.03677 9.70251,-0.312299 6.67106,-0.73743 11.68602,-1.794117 14.17555,-2.98689 0.95655,-0.458301 1.27841,-0.775141 1.42279,-1.400608 0.35738,-1.548301 -2.72405,-2.902077 -9.08614,-3.991835 -4.45126,-0.762459 -8.14687,-1.136952 -13.38618,-1.356489 -2.1255,-0.08906 -11.334619,-0.131551 -13.221735,-0.061 z"
     style="opacity:0.83999999;vector-effect:none;fill:#fbc707;fill-opacity:1;stroke:#face2c;stroke-width:0.8007048;stroke-linecap:butt;stroke-linejoin:miter;stroke-miterlimit:4;stroke-dasharray:none;stroke-dashoffset:37.79527664;stroke-opacity:1" /><path
     inkscape:connector-curvature="0"
     id="path1192"
     d="m 89.854301,42.106737 c -0.758919,0.04271 -2.011925,0.194267 -4.276175,0.517237 -0.641923,0.09157 -0.879077,0.130476 -0.81544,0.133795 0.102931,0.0054 0.123683,0.03926 0.03902,0.0637 -0.103913,0.03 0.01912,0.01666 0.348567,-0.03776 2.882294,-0.476326 3.789094,-0.60013 4.633798,-0.632628 0.227467,-0.0088 0.487315,-0.02042 0.577442,-0.02596 0.149008,-0.0091 0.156791,-0.01108 0.08584,-0.02131 -0.09749,-0.01407 -0.309633,-0.01302 -0.593047,0.0028 z"
     style="opacity:0.83999999;vector-effect:none;fill:#fbc707;fill-opacity:1;stroke:#face2c;stroke-width:0.8007048;stroke-linecap:butt;stroke-linejoin:miter;stroke-miterlimit:4;stroke-dasharray:none;stroke-dashoffset:37.79527664;stroke-opacity:1" /></g><path
   style="opacity:0.83999999;vector-effect:none;fill:#030303;fill-opacity:0.99576272;stroke:none;stroke-width:0.08371944;stroke-linecap:butt;stroke-linejoin:miter;stroke-miterlimit:4;stroke-dasharray:none;stroke-dashoffset:37.79527664;stroke-opacity:1"
   d="m 35.704649,63.145841 c -0.439844,0.173805 -0.796362,0.454322 -0.792263,0.623376 0.0041,0.169056 1.043516,2.074013 2.309816,4.233246 1.2663,2.159229 2.788696,4.77648 3.383103,5.816109 2.964313,5.184645 9.269747,14.881163 13.852457,21.302355 13.885974,19.456723 24.585482,29.967403 42.873541,42.116883 2.63054,1.74757 5.185027,3.40593 5.676647,3.68523 0.49161,0.2793 1.10671,0.63868 1.36688,0.79862 0.26017,0.15994 2.53431,1.534 5.05363,3.05346 2.51933,1.51946 5.52822,3.33698 6.68642,4.03893 4.96594,3.00969 8.44014,4.99099 8.55329,4.87784 0.33882,-0.33882 -17.7885,-12.98786 -20.69693,-14.44208 -0.99896,-0.49948 -7.881977,-5.29477 -11.134696,-7.75736 -8.476542,-6.4175 -17.853339,-15.04692 -24.495896,-22.54347 -1.318563,-1.48807 -2.810595,-3.16361 -3.31563,-3.72341 -1.84593,-2.0461 -5.187908,-6.172641 -7.589618,-9.371371 -1.353954,-1.803268 -2.563009,-3.409533 -2.686788,-3.569476 -2.494074,-3.22275 -8.65556,-12.607846 -11.836982,-18.029942 -1.407703,-2.399147 -2.840929,-4.820103 -3.18495,-5.379902 -0.702021,-1.142354 -1.617938,-3.024275 -2.37067,-4.870993 -0.277073,-0.679758 -0.582042,-1.222004 -0.677708,-1.204987 -0.09567,0.01702 -0.53381,0.17314 -0.973653,0.346942 z"
   id="path863"
   inkscape:connector-curvature="0" /><path
   style="opacity:1;vector-effect:none;fill:#41748c;fill-opacity:1;stroke:none;stroke-width:0.08371944;stroke-linecap:butt;stroke-linejoin:miter;stroke-miterlimit:4;stroke-dasharray:none;stroke-dashoffset:37.79527664;stroke-opacity:1"
   d="m 33.194623,69.003654 c -0.488998,1.941987 -0.393299,5.792235 0.255103,10.263526 0.613018,4.227291 1.201983,6.630711 1.541641,6.29105 0.112405,-0.112404 0.204372,-0.830432 0.204372,-1.59562 0,-2.54421 1.095798,-6.328482 1.720685,-5.94228 0.133038,0.08222 0.118759,0.773527 -0.03173,1.536238 -0.305585,1.54873 -0.100673,4.565312 0.489279,7.202851 l 0.390275,1.744834 0.02437,-2.779774 c 0.01558,-1.776853 0.159887,-2.965099 0.399977,-3.293445 0.321727,-0.439985 0.491668,0.146476 1.184708,4.088398 1.608695,9.150055 2.618251,13.2451 3.971386,16.109068 1.715304,3.63053 4.898903,7.79737 9.716484,12.7174 l 3.217966,3.28639 0.180349,-3.28639 c 0.128956,-2.34989 0.364437,-3.76728 0.826354,-4.97389 0.853444,-2.22935 1.365798,-2.05337 1.174339,0.40334 -0.25852,3.31724 -0.107563,8.80264 0.287432,10.44452 0.507504,2.10956 2.153408,6.16992 2.979058,7.34919 1.305484,1.86461 7.886419,8.90601 9.704477,10.3835 3.2423,2.63492 6.490699,5.19611 7.211173,5.68562 1.391215,0.94524 2.565347,1.62359 2.651411,1.53185 0.04452,-0.0475 -0.236385,-1.13319 -0.624233,-2.41273 -0.775483,-2.55839 -1.239453,-6.93037 -0.766497,-7.22268 0.170462,-0.10535 0.437445,0.56998 0.644875,1.63121 0.678029,3.46887 2.433626,7.6748 3.961413,9.49047 0.669052,0.79513 3.62675,2.93493 4.056743,2.93493 0.07787,0 1.501826,0.77223 3.164339,1.71607 4.548151,2.58207 4.351641,2.66982 3.017081,-1.34719 -1.08646,-3.27022 -1.767209,-7.37501 -1.21468,-7.32434 0.14315,0.0131 1.14607,1.81249 2.22869,3.99858 1.86097,3.75776 4.02355,7.36071 5.808887,9.67787 1.87346,2.43153 16.43099,7.56174 23.41159,8.25046 1.87877,0.18536 2.08973,0.0822 1.42966,-0.69908 -0.80557,-0.95349 -4.60082,-7.59422 -4.50481,-7.88226 0.0552,-0.16558 1.39628,1.01204 2.98019,2.61694 1.58391,1.6049 2.93563,2.86219 3.00383,2.79399 0.0682,-0.0682 -0.4229,-0.92934 -1.09133,-1.91365 -0.66844,-0.98431 -1.14545,-1.85955 -1.06003,-1.94496 0.0854,-0.0854 1.47572,0.70984 3.08956,1.76724 1.61384,1.0574 3.02433,1.92255 3.13442,1.92255 0.30614,0 -1.51201,-1.61808 -4.72434,-4.20446 -3.23534,-2.60491 -3.04558,-2.4659 -7.02139,-5.14369 -2.88115,-1.94051 -3.59503,-2.36951 -7.08608,-4.2583 -1.03963,-0.56247 -2.60998,-1.41731 -3.48967,-1.89962 -0.87969,-0.48232 -2.05745,-1.12047 -2.61725,-1.41811 -0.5598,-0.29764 -1.4104,-0.78052 -1.89024,-1.07307 -0.47982,-0.29254 -1.34257,-0.79837 -1.9172,-1.12406 -2.58942,-1.46761 -8.820637,-5.54225 -15.209152,-9.94537 -0.660801,-0.45544 -7.012402,-5.16905 -7.735207,-5.7404 -6.768079,-5.34994 -12.793883,-11.65309 -19.408392,-20.30171 -0.648837,-0.84837 -2.832096,-3.81352 -4.60851,-6.25896 -1.106873,-1.523737 -2.303034,-3.15952 -2.658132,-3.635067 -0.3551,-0.475548 -2.919657,-4.267058 -5.699016,-8.425575 -5.935126,-8.880219 -9.967387,-15.464655 -12.332543,-20.138283 -0.36149,-0.714317 -0.669755,-0.945118 -1.262323,-0.945118 -0.685042,0 -0.825109,0.163128 -1.109362,1.291997 z"
   id="path861"
   inkscape:connector-curvature="0" /><path
   style="opacity:1;vector-effect:none;fill:#41748c;fill-opacity:1;stroke:none;stroke-width:0.08371944;stroke-linecap:butt;stroke-linejoin:miter;stroke-miterlimit:4;stroke-dasharray:none;stroke-dashoffset:37.79527664;stroke-opacity:1"
   d="m 41.116564,67.855894 c 0.22726,0.592225 2.875059,5.127812 5.263475,9.016137 11.827623,19.255312 26.6385,36.293629 42.594811,49.000729 4.137383,3.29488 10.099523,7.44894 15.578,10.85382 0.95966,0.59642 2.66088,1.73779 3.78048,2.53636 1.1196,0.79858 2.55909,1.80701 3.19886,2.24097 5.44017,3.69007 18.57842,13.94534 22.0218,17.18948 1.23148,1.16021 2.12381,1.7883 2.39357,1.68478 0.53319,-0.2046 1.32155,-2.03418 1.31908,-3.06123 -0.001,-0.52318 -0.25348,-0.91351 -0.79972,-1.23763 -2.90902,-1.72614 -7.341,-4.70037 -7.341,-4.92643 0,-0.14896 0.0472,-0.27084 0.10491,-0.27084 0.33203,0 6.57299,2.16613 7.25219,2.51711 l 0.81398,0.42063 -0.087,-1.83238 -0.087,-1.83238 -2.06294,-1.01782 c -1.13461,-0.5598 -2.50867,-1.19315 -3.05345,-1.40745 -2.19773,-0.8645 -7.14264,-2.36398 -7.82445,-2.37266 -0.39986,-0.005 -0.92331,-0.13612 -1.16323,-0.29116 -0.7694,-0.49723 1.38566,-0.33558 5.69022,0.42682 2.22847,0.3947 4.76199,0.91677 5.63004,1.16015 0.86805,0.24339 1.62817,0.39262 1.68917,0.33162 0.29915,-0.29915 -0.85044,-2.22164 -1.72934,-2.89201 -2.9701,-2.2654 -9.24014,-4.31156 -14.91428,-4.86711 -1.75889,-0.17221 -3.25291,-0.36803 -3.32003,-0.43515 -0.42147,-0.42147 0.86852,-0.55263 5.01775,-0.51017 4.13412,0.0423 5.09249,0.14898 7.97069,0.88728 1.79936,0.46155 3.27015,0.8325 3.26842,0.82433 -0.65663,-3.09987 -3.11929,-7.29075 -5.94423,-10.11569 -1.75524,-1.75525 -3.42278,-2.65832 -7.09476,-3.84227 -1.22384,-0.3946 -3.01033,-0.98599 -3.96999,-1.31421 l -1.74484,-0.59675 1.81754,0.14798 c 0.99964,0.0814 2.63542,0.21756 3.63507,0.30259 l 1.81753,0.15461 -1.45402,-0.72275 c -2.12822,-1.05787 -5.05266,-2.11544 -6.49832,-2.35001 -0.80185,-0.1301 -1.16241,-0.30646 -0.9864,-0.48247 0.17601,-0.17601 1.5911,-0.064 3.87139,0.30652 1.97669,0.32116 3.63558,0.54232 3.68643,0.49148 0.3161,-0.3161 -5.8067,-5.11293 -6.52628,-5.11293 -0.10425,0 -0.39615,-0.18206 -0.64866,-0.40458 -0.74339,-0.6551 -6.45002,-3.02982 -10.23713,-4.26001 -7.468377,-2.42602 -12.881739,-3.33676 -19.445511,-3.27153 -4.785064,0.0476 -8.966443,-0.53993 -10.655684,-1.49716 l -0.833553,-0.47234 1.275883,0.18683 c 2.706346,0.3963 10.578073,0.23306 12.391976,-0.25697 3.55551,-0.96054 10.336532,-0.85014 16.842769,0.27422 1.03741,0.17928 1.12065,0.14727 0.931,-0.35799 -0.96193,-2.56281 -5.123347,-7.432309 -7.961457,-9.316141 -1.44957,-0.962168 -3.781333,-1.94612 -9.957715,-4.201932 -5.514324,-2.014013 -9.606428,-2.9695 -14.862308,-3.470285 -3.65953,-0.348685 -4.868837,-0.563578 -5.078245,-0.902408 -0.09088,-0.147046 2.700059,-0.257839 6.49509,-0.257839 6.256483,0 6.799699,0.04348 9.083381,0.727014 2.166389,0.64843 4.183995,1.004441 2.908054,0.513131 C 82.938666,89.79742 81.891767,89.174463 80.852137,88.505453 76.947233,85.992564 70.501879,82.576717 65.820375,80.53902 62.519818,79.102401 58.601205,77.913249 55.5762,77.430295 c -3.697865,-0.590376 -7.344683,-1.522911 -7.837532,-2.004146 -0.571156,-0.557702 -0.159396,-1.057364 0.626316,-0.760021 1.159811,0.438918 5.817162,0.937945 8.612334,0.922795 3.360919,-0.0182 7.17332,0.963649 10.890258,2.804731 0.775632,0.384184 1.464335,0.644427 1.530449,0.578313 0.128488,-0.128488 -2.944673,-2.351859 -4.39472,-3.179491 -1.557401,-0.888911 -6.087302,-3.051312 -6.83393,-3.262257 -0.399856,-0.11297 -1.381326,-0.441983 -2.181042,-0.731136 -0.799715,-0.289155 -2.500927,-0.822203 -3.78047,-1.184559 -2.932526,-0.830462 -6.782004,-2.251905 -7.544125,-2.785715 -0.324727,-0.227448 -1.275274,-0.407958 -2.148277,-0.407958 -1.270515,0 -1.534351,0.08205 -1.398897,0.435043 z"
   id="path865"
   inkscape:connector-curvature="0" /><g
   id="g1034"
   transform="matrix(1.290406,0,0,1.290406,-7.67992,-11.938546)"><path
     inkscape:connector-curvature="0"
     id="path867"
     d="m 34.200932,54.712266 c -0.04139,0.06132 -0.153508,0.117746 -0.271338,0.136549 -0.110445,0.01763 -0.243462,0.0747 -0.295594,0.126832 -0.0636,0.0636 -0.169764,0.09479 -0.322656,0.09479 -0.178387,0 -0.234574,0.02112 -0.258741,0.09727 -0.03159,0.09952 -0.168839,0.157824 -0.374467,0.159072 -0.06362,4.71e-4 -0.158844,0.04388 -0.211616,0.09665 -0.05277,0.05277 -0.198633,0.111346 -0.324136,0.130166 -0.129273,0.0194 -0.265736,0.07807 -0.31481,0.135385 -0.05354,0.06254 -0.151155,0.101169 -0.255626,0.101169 -0.103286,0 -0.202006,0.03854 -0.25387,0.09911 -0.04953,0.05785 -0.188064,0.114501 -0.332723,0.136068 -0.150677,0.02246 -0.274196,0.07431 -0.315032,0.132219 -0.04478,0.0635 -0.13064,0.09527 -0.257525,0.09527 -0.131687,0 -0.209247,0.03026 -0.251671,0.09819 -0.03373,0.054 -0.131826,0.113677 -0.217997,0.132603 -0.181506,0.03987 -0.199474,0.125797 -0.05386,0.257578 0.06659,0.06026 0.102815,0.158332 0.102815,0.278342 0,0.128054 0.03098,0.204643 0.10027,0.247916 0.05532,0.03455 0.116273,0.149563 0.135967,0.256554 0.01963,0.106661 0.07861,0.249102 0.131065,0.316533 0.05245,0.06743 0.09537,0.199081 0.09537,0.292559 0,0.210062 0.0712,0.259977 0.22608,0.158495 0.06531,-0.04279 0.208875,-0.09412 0.319037,-0.11407 0.110162,-0.01994 0.241679,-0.07946 0.29226,-0.132259 0.05613,-0.05859 0.163416,-0.09599 0.275321,-0.09599 0.120577,0 0.23565,-0.044 0.336091,-0.128518 0.09291,-0.07818 0.21683,-0.128519 0.316353,-0.128519 0.107942,0 0.185466,-0.03499 0.227826,-0.102817 0.04656,-0.07455 0.119884,-0.102814 0.266756,-0.102814 0.144797,0 0.242084,-0.03664 0.34122,-0.128518 0.09473,-0.08779 0.197542,-0.128521 0.324433,-0.128521 0.125334,0 0.205156,-0.03106 0.245393,-0.09549 0.0356,-0.057 0.143469,-0.106737 0.267625,-0.123388 0.114395,-0.01535 0.269744,-0.07647 0.345221,-0.135845 0.08397,-0.06605 0.212019,-0.107944 0.329932,-0.107944 0.149469,0 0.198735,-0.02307 0.219589,-0.102817 0.01565,-0.05984 0.07012,-0.102815 0.13031,-0.102815 0.267812,0 0.370363,-0.218573 0.163241,-0.347922 -0.07172,-0.04479 -0.102815,-0.119885 -0.102815,-0.248314 0,-0.124975 -0.03466,-0.212164 -0.107911,-0.271482 -0.07174,-0.05809 -0.117131,-0.16919 -0.135416,-0.331421 -0.01873,-0.166143 -0.05812,-0.260426 -0.123425,-0.295375 -0.06886,-0.03685 -0.09592,-0.108832 -0.09592,-0.255155 0,-0.180349 -0.01408,-0.203821 -0.122249,-0.203821 -0.06724,0 -0.153987,0.04703 -0.192778,0.104502 z"
     style="opacity:0.83999999;vector-effect:none;fill:#fbc707;fill-opacity:1;stroke:none;stroke-width:0.2042743;stroke-linecap:butt;stroke-linejoin:miter;stroke-miterlimit:4;stroke-dasharray:none;stroke-dashoffset:37.79527664;stroke-opacity:1" /><path
     inkscape:connector-curvature="0"
     id="path869"
     d="m 26.708998,43.140547 c -0.0059,0.278083 0.01144,0.350469 0.108667,0.453959 l 0.115667,0.123122 v 1.953891 c 0,1.938477 -8.71e-4,1.954596 -0.110741,2.043561 -0.09831,0.0796 -0.112737,0.150657 -0.128519,0.632795 -0.0149,0.45512 -0.03441,0.561482 -0.12045,0.656436 -0.08005,0.08835 -0.106749,0.203084 -0.121179,0.520834 -0.01738,0.382644 -0.01033,0.415703 0.115524,0.541551 0.07372,0.07372 0.134031,0.186011 0.134031,0.249545 0,0.06912 0.03816,0.125493 0.09502,0.14036 0.0577,0.01509 0.108321,0.09136 0.128888,0.194192 0.01863,0.09314 0.07997,0.201637 0.136315,0.241103 0.05635,0.03946 0.102446,0.105143 0.102446,0.145952 0,0.04081 0.04699,0.121187 0.104422,0.178618 0.05743,0.05743 0.117748,0.17105 0.134035,0.252486 0.01715,0.08576 0.07055,0.158768 0.126912,0.173505 0.06799,0.01778 0.0973,0.07157 0.0973,0.17857 0,0.106602 0.03904,0.178706 0.128519,0.237331 0.07069,0.04631 0.128519,0.118376 0.128519,0.160136 0,0.04176 0.04627,0.122192 0.102815,0.178741 0.05655,0.05655 0.102816,0.160649 0.102816,0.231335 0,0.07069 0.02148,0.128518 0.04774,0.128518 0.08716,0 0.209302,0.159924 0.209302,0.274048 0,0.06186 0.04627,0.141377 0.102815,0.176691 0.05655,0.03532 0.102816,0.09533 0.102816,0.13338 0,0.03804 0.05783,0.131571 0.128519,0.207842 0.07068,0.07627 0.128519,0.192619 0.128519,0.25855 0,0.07571 0.03702,0.129554 0.100474,0.146149 0.05736,0.015 0.115257,0.08927 0.134924,0.17307 0.04597,0.19588 0.240151,0.382656 0.335238,0.322451 0.03958,-0.02506 0.15871,-0.04592 0.264738,-0.04635 0.13269,-4.71e-4 0.192779,-0.02374 0.192779,-0.07443 0,-0.07842 0.05911,-0.102605 0.385557,-0.157732 0.113097,-0.01909 0.247015,-0.07895 0.297596,-0.133008 0.06059,-0.06475 0.161438,-0.09828 0.295594,-0.09828 0.143804,0 0.203628,-0.02194 0.203628,-0.0747 0,-0.07613 0.289132,-0.181526 0.499416,-0.182056 0.06262,-1.57e-4 0.13862,-0.04655 0.168884,-0.103101 0.04241,-0.07925 0.107638,-0.102817 0.28455,-0.102817 0.162634,0 0.229526,-0.021 0.229526,-0.07208 0,-0.08331 0.257492,-0.184954 0.468531,-0.184954 0.09213,0 0.164745,-0.03737 0.199768,-0.102817 0.04082,-0.07628 0.107639,-0.102814 0.258847,-0.102814 h 0.203822 v -0.364465 c 0,-0.314012 -0.01573,-0.377204 -0.113637,-0.456483 -0.09451,-0.07653 -0.116915,-0.155797 -0.133112,-0.470908 -0.01395,-0.271456 -0.04317,-0.397366 -0.103041,-0.444046 -0.05834,-0.04548 -0.09431,-0.190152 -0.119149,-0.479211 -0.02689,-0.312879 -0.05843,-0.430765 -0.129069,-0.482417 -0.07297,-0.05336 -0.09795,-0.156783 -0.113837,-0.471365 -0.01568,-0.310538 -0.04109,-0.417532 -0.110749,-0.466321 -0.06625,-0.04641 -0.100365,-0.169656 -0.127707,-0.461439 -0.02575,-0.274757 -0.06311,-0.416991 -0.120584,-0.459016 -0.06123,-0.04477 -0.08825,-0.167721 -0.102059,-0.464365 -0.01492,-0.320444 -0.03888,-0.419338 -0.116437,-0.480582 -0.06865,-0.05421 -0.10761,-0.172544 -0.131168,-0.398408 -0.01902,-0.182362 -0.05834,-0.321298 -0.09093,-0.321298 -0.03158,0 -0.08632,-0.04627 -0.121631,-0.102817 -0.04608,-0.07379 -0.119884,-0.102814 -0.261437,-0.102814 -0.13194,0 -0.228028,-0.03403 -0.290274,-0.102815 -0.05118,-0.05655 -0.153078,-0.103132 -0.22645,-0.103518 -0.222738,-0.0012 -0.359721,-0.05673 -0.392203,-0.159072 -0.01855,-0.05844 -0.07828,-0.09726 -0.149631,-0.09726 -0.06532,0 -0.148668,-0.03604 -0.185222,-0.08008 -0.03655,-0.04405 -0.143487,-0.112265 -0.237629,-0.151599 -0.09414,-0.03934 -0.171167,-0.107401 -0.171167,-0.151253 0,-0.05389 -0.0488,-0.07974 -0.150551,-0.07974 -0.145698,0 -0.312118,-0.111598 -0.312118,-0.209302 0,-0.02625 -0.04471,-0.04774 -0.09935,-0.04774 -0.05464,0 -0.114036,-0.04627 -0.131983,-0.102816 -0.01795,-0.05655 -0.06174,-0.102815 -0.09732,-0.102815 -0.03558,0 -0.119018,-0.05783 -0.185423,-0.12852 -0.06641,-0.07068 -0.149633,-0.128519 -0.18495,-0.128519 -0.03532,0 -0.228086,-0.161934 -0.428375,-0.359853 -0.20029,-0.197919 -0.38557,-0.359853 -0.411735,-0.359853 -0.02616,0 -0.06188,-0.04508 -0.07937,-0.100187 -0.01749,-0.0551 -0.07688,-0.114494 -0.131983,-0.131982 -0.0551,-0.01749 -0.100186,-0.05672 -0.100186,-0.08718 0,-0.03046 -0.04698,-0.104086 -0.104403,-0.163611 -0.224675,-0.232898 -0.409673,-0.485254 -0.409673,-0.558831 0,-0.04245 -0.04431,-0.08877 -0.09846,-0.10293 -0.05415,-0.01415 -0.108836,-0.08047 -0.121519,-0.147366 -0.01268,-0.06689 -0.02621,0.02726 -0.03006,0.209217 z m 3.266751,4.316039 c 0.01449,0.0554 0.08723,0.109659 0.168917,0.125995 0.185857,0.03717 0.310089,0.16405 0.310089,0.316692 0,0.07552 0.03817,0.1335 0.10103,0.15345 0.126457,0.04013 0.17599,0.280718 0.145262,0.705532 -0.01824,0.252125 -0.0454,0.33086 -0.13457,0.390067 -0.06145,0.0408 -0.111722,0.117625 -0.111722,0.170725 0,0.0531 -0.03204,0.09655 -0.0712,0.09655 -0.03916,0 -0.109093,0.05783 -0.155408,0.128519 -0.05689,0.08683 -0.131265,0.12852 -0.229279,0.12852 -0.07979,0 -0.186941,0.04627 -0.238117,0.102815 -0.129242,0.14281 -0.506541,0.14281 -0.62882,0 -0.04842,-0.05655 -0.150639,-0.102815 -0.227159,-0.102815 -0.132346,0 -0.300693,-0.113825 -0.300693,-0.203308 0,-0.02295 -0.04627,-0.05384 -0.102815,-0.06863 -0.05655,-0.01479 -0.102815,-0.06804 -0.102815,-0.11835 0,-0.0503 -0.05205,-0.146867 -0.115667,-0.214585 -0.09723,-0.103502 -0.115668,-0.180533 -0.115668,-0.483375 0,-0.311573 0.01563,-0.37291 0.115668,-0.453917 0.06362,-0.05151 0.115667,-0.139946 0.115667,-0.196519 0,-0.105882 0.268928,-0.369034 0.377135,-0.369034 0.03344,0 0.0897,-0.04627 0.125011,-0.102815 0.05695,-0.0912 0.119884,-0.102814 0.556959,-0.102814 0.440205,0 0.495463,0.01038 0.518194,0.0973 z"
     style="opacity:0.83999999;vector-effect:none;fill:#fbc707;fill-opacity:1;stroke:none;stroke-width:0.2042743;stroke-linecap:butt;stroke-linejoin:miter;stroke-miterlimit:4;stroke-dasharray:none;stroke-dashoffset:37.79527664;stroke-opacity:1" /></g><g
   id="g925"
   style="fill:#060000;fill-opacity:1;stroke:none"
   transform="matrix(1.03029,0,0,1.03029,38.023344,73.444394)"><g
     id="g1554"
     style="opacity:1;fill:#060000;fill-opacity:1;stroke:none;stroke-width:0.0996118;stroke-miterlimit:4;stroke-dasharray:none;stroke-opacity:1"
     transform="matrix(4.4123083,0,0,4.4123083,-25.589483,-150.99357)"><path
       transform="matrix(0.75000002,0,0,-0.75000002,0,77.301999)"
       inkscape:connector-curvature="0"
       id="path1545"
       d="m 22.846706,65.868055 c 0,-0.130222 0.05147,-0.154405 0.32862,-0.154405 0.402062,0 0.835638,-0.117671 0.91931,-0.249497 0.03418,-0.05385 0.06268,-1.806944 0.06333,-3.895759 l 0.0012,-3.797844 -0.171583,-0.120182 c -0.111058,-0.07779 -0.342535,-0.120181 -0.656221,-0.120181 -0.433169,0 -0.484638,-0.0164 -0.484638,-0.154405 0,-0.137632 0.05147,-0.154405 0.473785,-0.154405 h 0.473785 l -0.04222,-0.482515 c -0.100475,-1.148272 -0.330653,-1.664207 -0.865673,-1.940374 -0.250668,-0.12939 -0.490545,-0.164544 -1.293519,-0.189562 -0.710436,-0.02213 -1.018023,-0.004 -1.101209,0.06508 -0.168608,0.139932 -0.174223,7.609981 -0.0059,7.840284 0.09324,0.127566 0.233933,0.155602 0.945731,0.188461 0.762146,0.03518 0.838157,0.05228 0.858338,0.193007 0.02175,0.151652 -0.02195,0.154404 -2.451179,0.154404 H 17.36533 V 62.88329 c 0,-0.159422 0.03822,-0.168043 0.85559,-0.193006 0.739971,-0.0226 0.870379,-0.04638 0.965031,-0.175992 0.09095,-0.124533 0.109441,-0.792769 0.109441,-3.953911 V 54.75633 l -0.166021,-0.08885 c -0.278802,-0.14921 -1.966999,-0.05891 -2.342041,0.12527 -0.530745,0.260648 -0.772384,0.762619 -0.862494,1.791709 -0.03458,0.39494 -0.07977,0.559718 -0.153485,0.559718 -0.129641,0 -0.13117,-0.165542 -0.01551,-1.679154 l 0.08997,-1.177338 h 3.962193 3.962193 l 0.03533,0.173705 c 0.01943,0.09554 0.07434,0.677452 0.12202,1.293142 0.04768,0.61569 0.102489,1.197201 0.121795,1.292246 l 0.0351,0.172811 3.028951,0.0202 3.028952,0.02019 0.128061,1.080835 c 0.07043,0.594459 0.147937,1.228485 0.172229,1.408945 0.03476,0.258185 0.0198,0.328111 -0.07016,0.328111 -0.06288,0 -0.115539,-0.0087 -0.11702,-0.0193 -0.08409,-0.602572 -0.256137,-1.300628 -0.387381,-1.571742 -0.209959,-0.433718 -0.648889,-0.763903 -1.161685,-0.873878 -0.475581,-0.101994 -3.152635,-0.107892 -3.311997,-0.0073 -0.09631,0.0608 -0.119731,0.372437 -0.139139,1.851678 l -0.02333,1.778578 h 0.932944 c 1.374342,0 1.66515,-0.171771 1.754372,-1.036254 0.02991,-0.289812 0.07877,-0.430593 0.149444,-0.430593 0.08535,0 0.105003,0.317833 0.105003,1.698455 0,1.381242 -0.01963,1.698454 -0.105081,1.698454 -0.07237,0 -0.118235,-0.145071 -0.147334,-0.465975 -0.08188,-0.903032 -0.366409,-1.078074 -1.752369,-1.078074 h -0.92891 v 1.89146 c 0,1.822214 0.006,1.897433 0.163121,2.054582 0.15797,0.15797 0.212228,0.161909 1.717756,0.124706 0.855049,-0.02113 1.684035,-0.07855 1.842193,-0.12761 0.737922,-0.228888 1.258883,-0.920292 1.476823,-1.959997 L 30.5481,63.088766 h -0.299383 c -0.267873,0 -0.299382,-0.02031 -0.299382,-0.193006 0,-0.175066 0.0305,-0.193322 0.32811,-0.196395 0.408079,-0.0042 0.831041,-0.151376 1.158194,-0.402971 0.319993,-0.246087 2.562653,-3.561499 2.507082,-3.706316 -0.115321,-0.300523 -2.504948,-3.794856 -2.668366,-3.901932 -0.104831,-0.06869 -0.409451,-0.138376 -0.680231,-0.155618 -0.417754,-0.0266 -0.490384,-0.05276 -0.490384,-0.176637 0,-0.138198 0.08808,-0.145411 1.775657,-0.145411 1.639787,0 1.775626,0.01034 1.775251,0.135105 -3.08e-4,0.09269 -0.113527,0.171459 -0.360744,0.250908 -0.62767,0.201717 -0.623833,0.21901 0.384331,1.731912 0.497052,0.745903 0.929679,1.354924 0.961392,1.353379 0.122195,-0.0059 1.640311,-2.3744 1.640311,-2.559089 0,-0.226475 -0.263911,-0.494032 -0.559718,-0.56745 -0.138212,-0.0343 -0.212307,-0.10366 -0.212307,-0.198729 0,-0.138253 0.08023,-0.146036 1.505449,-0.146036 1.416414,0 1.505448,0.0085 1.505448,0.143652 0,0.115516 -0.07847,0.152944 -0.400635,0.1911 -0.220349,0.0261 -0.581411,0.135895 -0.802358,0.243994 -0.373177,0.182579 -0.474422,0.302036 -1.424776,1.68106 -0.56268,0.816483 -1.023385,1.519256 -1.02379,1.561717 -0.0011,0.112265 2.826187,4.379477 2.991004,4.514357 0.08188,0.06701 0.357417,0.126152 0.670025,0.143816 0.481478,0.02721 0.530947,0.04537 0.530947,0.194995 0,0.16374 -0.01348,0.164993 -1.775657,0.164993 -1.757252,0 -1.775657,-0.0017 -1.775657,-0.16354 0,-0.13269 0.05882,-0.17143 0.311838,-0.205366 0.360752,-0.04839 0.53739,-0.170039 0.53739,-0.370103 0,-0.141002 -2.065831,-3.316861 -2.153766,-3.311045 -0.07539,0.005 -1.94584,2.828249 -1.992852,3.008022 -0.0853,0.326193 0.273324,0.694621 0.676138,0.694621 0.109356,0 0.150773,0.05302 0.150773,0.193007 v 0.193006 h -1.117965 c -1.096924,0 -1.118663,0.0033 -1.155018,0.173705 -0.02038,0.09554 -0.130627,0.75562 -0.244994,1.466847 l -0.20794,1.293142 h -3.732406 c -3.680936,0 -3.732405,-0.0021 -3.732405,-0.154405 z"
       style="opacity:0.83999999;vector-effect:none;fill:#060000;fill-opacity:1;stroke:none;stroke-width:0.13281573;stroke-linecap:butt;stroke-linejoin:miter;stroke-miterlimit:4;stroke-dasharray:none;stroke-dashoffset:37.79527664;stroke-opacity:1" /><path
       transform="matrix(0.75000002,0,0,-0.75000002,0,77.301999)"
       inkscape:connector-curvature="0"
       id="path1547"
       d="m 9.6450817,60.309476 c 0,-0.116903 0.051565,-0.154475 0.2123069,-0.154693 0.3198284,-4.33e-4 0.6646864,-0.249703 0.8116074,-0.586643 0.07216,-0.165493 0.596361,-1.482095 1.164886,-2.925782 0.842774,-2.140102 1.062199,-2.629198 1.188091,-2.648243 0.116626,-0.01764 0.182433,0.04848 0.268928,0.270209 1.1161,2.861117 2.272563,5.699105 2.356594,5.783136 0.05962,0.05961 0.260105,0.107611 0.449508,0.107611 0.290429,0 0.341897,0.02324 0.341897,0.154405 0,0.147972 -0.05147,0.154405 -1.23524,0.154405 -1.170957,0 -1.235239,-0.0078 -1.235239,-0.149744 0,-0.116453 0.06263,-0.155072 0.28169,-0.173706 0.462069,-0.0393 0.480142,-0.176183 0.137085,-1.038265 l -0.302972,-0.761353 -1.28218,-0.02112 c -0.965868,-0.01591 -1.302033,0.0031 -1.362654,0.0772 -0.144141,0.176107 -0.481866,1.084646 -0.481866,1.296303 0,0.242876 0.213363,0.46187 0.449993,0.46187 0.116158,0 0.167627,0.04741 0.167627,0.154405 0,0.14617 -0.05147,0.154405 -0.965031,0.154405 -0.9135629,0 -0.9650313,-0.0082 -0.9650313,-0.154405 z M 13.94679,57.974101 c -0.02098,-0.05308 -0.28926,-0.733474 -0.596173,-1.511993 -0.306913,-0.77852 -0.58534,-1.38649 -0.618726,-1.351044 -0.06433,0.0683 -1.156747,2.81157 -1.156747,2.904817 0,0.0301 0.542204,0.05472 1.204898,0.05472 0.932797,0 1.196283,-0.02179 1.166748,-0.0965 z"
       style="opacity:0.83999999;vector-effect:none;fill:#060000;fill-opacity:1;stroke:none;stroke-width:0.13281573;stroke-linecap:butt;stroke-linejoin:miter;stroke-miterlimit:4;stroke-dasharray:none;stroke-dashoffset:37.79527664;stroke-opacity:1" /><path
       transform="matrix(0.75000002,0,0,-0.75000002,0,77.301999)"
       inkscape:connector-curvature="0"
       id="path1549"
       d="m 6.325375,62.89576 c 0,-0.187492 0.01544,-0.193007 0.5404174,-0.193007 0.9192499,0 0.8492273,0.336165 0.8492273,-4.076976 0,-3.109977 -0.0189,-3.794013 -0.1082026,-3.916141 C 7.520663,54.591813 7.3790786,54.555623 6.9119947,54.532037 6.3985925,54.506111 6.325375,54.484195 6.325375,54.356447 c 0,-0.13955 0.091635,-0.145967 2.084467,-0.145967 2.032999,0 2.084467,0.0038 2.084467,0.154405 0,0.14056 -0.05147,0.154405 -0.5739927,0.154405 -0.5833193,0 -0.958552,0.09021 -1.0638066,0.255738 -0.03206,0.05042 -0.058823,1.81579 -0.059473,3.923044 -0.00101,3.262252 0.015526,3.845237 0.1113028,3.924724 0.080938,0.06717 0.4652592,0.08577 1.3703435,0.06631 1.193033,-0.02565 1.278501,-0.03787 1.658385,-0.237181 0.669008,-0.350998 1.04509,-0.997286 1.200399,-2.062855 0.05974,-0.409903 0.124284,-0.620013 0.190452,-0.620013 0.132383,0 0.127272,0.167936 -0.055,1.807184 -0.08455,0.760414 -0.153729,1.41181 -0.153729,1.447547 0,0.03574 -1.528609,0.06498 -3.3969087,0.06498 H 6.325375 Z"
       style="opacity:0.83999999;vector-effect:none;fill:#060000;fill-opacity:1;stroke:none;stroke-width:0.13281573;stroke-linecap:butt;stroke-linejoin:miter;stroke-miterlimit:4;stroke-dasharray:none;stroke-dashoffset:37.79527664;stroke-opacity:1" /></g><path
     transform="matrix(0.5004405,0,0,-0.5004405,8.4359407,176.18646)"
     inkscape:connector-curvature="0"
     id="path912"
     d="m 84.315139,408.32221 c -2.130729,-0.3203 -1.006398,-1.20084 1.917341,-1.50159 4.00711,-0.41219 5.028457,-0.90184 5.362245,-2.57076 0.153879,-0.76941 0.279782,-12.37525 0.279782,-25.79077 v -24.39183 l -1.022701,-0.6701 c -0.562482,-0.36856 -2.478605,-0.81527 -4.258051,-0.9927 -1.779442,-0.17743 -3.189206,-0.51912 -3.132812,-0.75932 0.0564,-0.2402 1.432077,-0.53498 3.057062,-0.65508 l 2.954524,-0.21836 -0.123099,-1.96526 c -0.641638,-10.24376 -3.210509,-14.41747 -9.42746,-15.31702 -4.336247,-0.62743 -11.326237,-0.50544 -12.31131,0.21487 -0.822346,0.60131 -0.847736,1.38073 -0.847736,26.02361 v 25.40374 l 0.985806,0.79826 c 0.751493,0.60852 2.115186,0.87145 5.737377,1.10622 4.687144,0.30378 6.252326,0.69164 5.56567,1.37921 -0.192957,0.1932 -7.523603,0.40746 -16.29033,0.47612 -15.104176,0.1183 -15.931706,0.084 -15.790735,-0.65508 0.165445,-0.86736 2.673316,-1.3144 7.808034,-1.39182 4.58783,-0.0692 4.517854,0.0629 4.803401,-9.06912 0.133934,-4.28335 0.285386,-15.76889 0.33656,-25.52342 0.08478,-16.1597 0.02774,-17.78944 -0.641956,-18.34238 -0.937484,-0.77404 -12.16256,-0.78432 -14.876033,-0.0136 -4.439627,1.26098 -6.466258,4.80251 -7.341415,12.82911 -0.150176,1.37735 -0.455818,2.61724 -0.679205,2.7553 -0.549718,0.33974 -0.517784,-3.43592 0.09712,-11.48288 l 0.508923,-6.66003 h 26.134013 c 24.594565,0 26.134603,0.045 26.144054,0.76427 0.03031,2.30848 1.67027,17.99051 1.924342,18.4016 0.213964,0.3462 6.029016,0.48668 20.14591,0.48668 10.91483,0 19.84513,0.11293 19.84513,0.25095 0,0.47898 1.74594,14.82485 2.00247,16.45371 0.18982,1.20527 0.10364,1.63733 -0.32637,1.63625 -0.39003,-9.6e-4 -0.84002,-1.34405 -1.35347,-4.03969 -1.36553,-7.16911 -4.07199,-10.74755 -9.20674,-12.17306 -2.69938,-0.7494 -21.90302,-0.776 -22.648379,-0.0314 -0.428709,0.42829 -0.602241,3.43151 -0.712815,12.33635 l -0.146154,11.77024 5.823558,-0.003 c 9.92099,-0.004 11.20113,-0.78571 12.35514,-7.54318 0.15496,-0.90741 0.46835,-1.53452 0.69641,-1.39357 0.52935,0.32715 0.55607,20.59176 0.0276,20.91839 -0.45676,0.28229 -0.90481,-1.18089 -0.92672,-3.02638 -0.009,-0.72059 -0.38095,-2.11472 -0.82754,-3.09807 -1.19851,-2.639 -3.11153,-3.26699 -10.85118,-3.56212 l -6.223305,-0.23731 v 12.74897 12.74897 l 1.071959,1.07195 c 1.039276,1.03928 1.262296,1.07165 7.315116,1.06162 9.39956,-0.0156 16.08575,-0.63088 18.11725,-1.66728 2.30592,-1.17639 5.23726,-4.44801 6.44879,-7.19738 1.10277,-2.50258 2.49647,-8.11923 2.1527,-8.67547 -0.12075,-0.19516 -0.99403,-0.355 -1.94065,-0.355 -1.40855,0 -1.72111,-0.15291 -1.72111,-0.84201 0,-0.69998 0.42361,-0.89141 2.51116,-1.13479 4.01246,-0.46778 6.71224,-1.91961 9.03626,-4.85931 4.34527,-5.49643 14.04308,-20.15164 14.50389,-21.9181 0.21291,-0.81617 -1.01628,-2.93307 -6.0966,-10.4995 -8.10115,-12.06556 -11.0528,-16.09923 -11.99559,-16.39296 -0.41426,-0.12907 -2.10063,-0.42365 -3.7475,-0.65464 -3.26684,-0.4582 -3.86987,-0.74276 -2.88881,-1.3632 0.83832,-0.53017 21.40928,-0.53017 22.24759,0 0.81806,0.51735 0.73476,0.58742 -2.28015,1.91789 -2.81916,1.24408 -2.95713,1.62392 -1.57644,4.33987 1.71259,3.3688 10.46907,16.03218 11.08595,16.03218 0.65499,0 6.98278,-9.28029 9.58499,-14.05727 1.52793,-2.80489 1.56455,-2.97213 0.92271,-4.21333 -0.39394,-0.76178 -1.48023,-1.6855 -2.64555,-2.24963 -3.87986,-1.8782 -2.7341,-2.19104 7.99401,-2.18269 10.36971,0.008 12.59943,0.67825 6.50144,1.95412 -4.89925,1.02505 -6.8462,2.31705 -10.01809,6.648 -4.62025,6.30856 -10.82176,15.77531 -10.82176,16.51968 0,0.71214 10.70512,17.3975 16.30897,25.41972 3.38705,4.84875 3.68604,5.0505 8.24983,5.56686 2.57142,0.29095 3.5273,0.90156 2.46481,1.57453 -0.67289,0.4262 -20.8819,0.54535 -21.96557,0.1295 -1.17235,-0.44987 -0.76434,-1.39788 0.72854,-1.69278 4.23413,-0.83637 4.89791,-1.8807 3.136,-4.93388 -3.09344,-5.36052 -12.95322,-19.78841 -13.42021,-19.63789 -0.55602,0.17922 -7.64226,10.40743 -11.2571,16.24838 -1.183,1.91154 -2.15092,3.91497 -2.15092,4.45206 0,1.40022 1.68438,3.10292 3.70618,3.7465 0.95751,0.30479 1.80248,0.8738 1.87771,1.26447 0.11999,0.62314 -0.76356,0.74976 -7.19997,1.03185 -4.32334,0.18948 -7.45572,0.51097 -7.62642,0.78273 -0.15932,0.25366 -0.93716,4.55506 -1.72852,9.55869 l -1.43884,9.0975 -23.38307,-0.0654 c -12.860681,-0.036 -23.935156,-0.14843 -24.609941,-0.24987 z"
     style="opacity:1;vector-effect:none;fill:#060000;fill-opacity:1;stroke:none;stroke-width:0.12572739;stroke-linecap:butt;stroke-linejoin:miter;stroke-miterlimit:4;stroke-dasharray:none;stroke-dashoffset:37.79527664;stroke-opacity:1" /><path
     transform="matrix(0.5004405,0,0,-0.5004405,8.4359407,176.18646)"
     inkscape:connector-curvature="0"
     id="path914"
     d="m -3.5321971,371.36435 c -0.9355056,-0.68406 -0.6335819,-0.93253 1.6294359,-1.34096 3.1786212,-0.57368 3.8224586,-1.72481 11.0118629,-19.68842 7.5326523,-18.82125 8.4400073,-20.82427 9.3535563,-20.64834 0.402173,0.0774 3.446738,7.08403 8.118696,18.68387 4.111367,10.20798 7.801091,19.17485 8.199385,19.92638 0.839354,1.58376 1.49515,1.909 3.849259,1.909 1.912127,0 2.416704,1.01922 0.728546,1.47163 -1.306978,0.35026 -11.639163,0.34941 -13.391707,-10e-4 -1.85285,-0.37057 -1.480288,-1.15514 0.7588,-1.59794 2.613512,-0.51685 2.684013,-1.42595 0.549792,-7.08949 -0.976938,-2.59248 -1.875207,-4.81256 -1.996153,-4.93351 -0.373188,-0.37319 -13.542507,-0.64663 -15.6830542,-0.32563 -1.7626881,0.26433 -2.1238363,0.50771 -2.8387042,1.91304 -0.4504895,0.88559 -1.2321485,2.95057 -1.7370197,4.58884 -0.8374228,2.71736 -0.8604119,3.08992 -0.2620701,4.24698 0.4139087,0.80041 1.166523,1.40065 2.0400278,1.627 1.6999311,0.4405 2.0409887,1.20716 0.6971548,1.56714 -1.9973592,0.53503 -10.1875379,0.30592 -11.0278075,-0.3085 z M 24.27097,355.99661 c 0.47437,-0.47437 -7.287633,-19.41842 -7.956369,-19.41842 -0.191631,0 -0.962246,1.47448 -1.712479,3.27662 -2.58703,6.21432 -6.1417429,15.41348 -6.1417429,15.89407 0,0.49416 15.3240539,0.73426 15.8105909,0.24773 z"
     style="opacity:1;vector-effect:none;fill:#060000;fill-opacity:1;stroke:none;stroke-width:0.12572739;stroke-linecap:butt;stroke-linejoin:miter;stroke-miterlimit:4;stroke-dasharray:none;stroke-dashoffset:37.79527664;stroke-opacity:1" /><path
     transform="matrix(0.5004405,0,0,-0.5004405,8.4359407,176.18646)"
     inkscape:connector-curvature="0"
     id="path916"
     d="m -26.040752,388.11153 c 0,-0.79627 0.291148,-0.87345 3.295275,-0.87345 4.154029,0 5.211722,-0.82756 5.64635,-4.41782 0.156559,-1.29326 0.223126,-12.71124 0.147927,-25.37329 -0.120705,-20.32416 -0.217947,-23.10308 -0.829842,-23.71466 -0.442274,-0.44205 -1.990472,-0.82355 -4.277934,-1.05415 -3.779548,-0.38102 -4.586396,-0.69114 -3.532406,-1.3577 0.874543,-0.55308 25.34585125,-0.53089 26.19074378,0.0237 1.12900452,0.74115 -0.34453922,1.28911 -3.49378548,1.29923 -3.5247164,0.0113 -5.9675637,0.66127 -6.5457088,1.74154 -0.6001485,1.12139 -0.6036685,49.75033 -0.00372,51.32832 l 0.4381464,1.15242 8.84222119,-0.14136 c 8.62078241,-0.13781 8.89789071,-0.17073 11.06515091,-1.3143 4.707819,-2.4841 6.725437,-6.12903 8.502429,-15.36004 0.301871,-1.56813 0.6488,-2.40144 0.896619,-2.15363 0.352042,0.35205 -0.853148,15.17008 -1.599752,19.66924 l -0.235534,1.41935 H -3.7876593 c -21.9619447,0 -22.2530927,-0.0114 -22.2530927,-0.87344 z"
     style="opacity:1;vector-effect:none;fill:#060000;fill-opacity:1;stroke:none;stroke-width:0.12572739;stroke-linecap:butt;stroke-linejoin:miter;stroke-miterlimit:4;stroke-dasharray:none;stroke-dashoffset:37.79527664;stroke-opacity:1" /></g></g><path
   style="opacity:0.83999999;vector-effect:none;fill:#ffffff;fill-opacity:0.7238806;stroke:#9c0000;stroke-width:0.00785796;stroke-linecap:butt;stroke-linejoin:miter;stroke-miterlimit:4;stroke-dasharray:none;stroke-dashoffset:37.79527664;stroke-opacity:1"
   d=""
   id="path1593"
   inkscape:connector-curvature="0"
   transform="matrix(0.75000002,0,0,-0.75000002,0,77.301999)" /><path
   style="opacity:0.83999999;vector-effect:none;fill:#ffffff;fill-opacity:0.7238806;stroke:#9c0000;stroke-width:0.00785796;stroke-linecap:butt;stroke-linejoin:miter;stroke-miterlimit:4;stroke-dasharray:none;stroke-dashoffset:37.79527664;stroke-opacity:1"
   d=""
   id="path1599"
   inkscape:connector-curvature="0"
   transform="matrix(0.75000002,0,0,-0.75000002,0,77.301999)" /><path
   style="opacity:0.83999999;vector-effect:none;fill:#ffffff;fill-opacity:0.7238806;stroke:#9c0000;stroke-width:0.00785796;stroke-linecap:butt;stroke-linejoin:miter;stroke-miterlimit:4;stroke-dasharray:none;stroke-dashoffset:37.79527664;stroke-opacity:1"
   d=""
   id="path1621"
   inkscape:connector-curvature="0"
   transform="matrix(0.75000002,0,0,-0.75000002,0,77.301999)" /></g></svg>